<svg xmlns="http://www.w3.org/2000/svg" width="127.345" height="123.465" viewBox="0 0 127.345 123.465"><g transform="translate(-0.016 31.364) rotate(-25)"><path d="M257.864,100.094a5.5,5.5,0,0,0-10.082-1.32l-.917,1.595a1.833,1.833,0,0,0-2.493.661l-4.656,7.936-1.595-.917a1.831,1.831,0,1,0-1.833,3.171l1.595.917-15.581,27-3.85,10.284-1.833,3.427a5.5,5.5,0,0,0,.294,5.939l-4.124,5.059-1.155-2.9a3.666,3.666,0,0,0-6.544-.514l-.66,1.118-.623-7.332a3.666,3.666,0,0,0-7.131-.861l-4.509,13.527a1.833,1.833,0,0,0,1.155,2.31,1.587,1.587,0,0,0,.568.146,1.833,1.833,0,0,0,1.742-1.246l4.49-13.527.642,7.441a3.666,3.666,0,0,0,6.8,1.577l.678-1.119,1.137,2.878a3.665,3.665,0,0,0,6.269.934l4.271-5.407a5.646,5.646,0,0,0,1.448.183,5.5,5.5,0,0,0,4.784-2.714l1.833-3.061,6.984-8.487,15.745-27.331,1.595.917a1.838,1.838,0,0,1,.678,2.511l-7.332,12.7a1.82,1.82,0,1,0,3.1,1.906l7.332-12.7a5.5,5.5,0,0,0-2.017-7.516l-1.595-.917,4.583-7.937a1.834,1.834,0,0,0-.66-2.493l.917-1.595a5.5,5.5,0,0,0,.55-4.252Zm-6.911.513a1.833,1.833,0,0,1,1.119-.861,1.925,1.925,0,0,1,1.393.183,1.835,1.835,0,0,1,.862,1.118,1.925,1.925,0,0,1-.183,1.393l-.917,1.595-3.19-1.833ZM225.97,151.785l-.917-.532-2.713-1.577,2.6-6.965,5.774,3.336Zm-5.5,5.3a1.832,1.832,0,0,1-.55-2.4l.917-1.594,3.189,1.833-.917,1.576a1.832,1.832,0,0,1-2.639.586Zm12.336-14.04-6.342-3.666,14.664-25.406,6.342,3.666Zm16.5-28.577-6.342-3.666,3.666-6.342,6.342,3.666Zm0,0" transform="translate(-158.087 -82.387)" fill="#a47ad7"/><path d="M80.814,357.037l-6.488,6.471-3.886-3.886a1.834,1.834,0,1,0-2.585,2.6l3.886,3.886a3.7,3.7,0,0,0,5.188,0l6.47-6.489a1.833,1.833,0,0,0-2.585-2.585Zm0,0" transform="translate(-51.889 -281.763)" fill="#a47ad7"/><path d="M32,327.621a15.581,15.581,0,1,0,31.161,0,1.833,1.833,0,1,0-3.666,0,11.916,11.916,0,1,1-4.766-9.531,1.833,1.833,0,0,0,2.2-2.933A15.581,15.581,0,0,0,32,327.621Zm0,0" transform="translate(-24.668 -248.912)" fill="#a47ad7"/><path d="M121.492,51.705a1.833,1.833,0,1,0,0-3.666H73.833A1.833,1.833,0,0,0,72,49.872V57.2a1.833,1.833,0,0,0,1.833,1.833h47.659a1.833,1.833,0,1,0,0-3.666H75.666V51.705Zm0,0" transform="translate(-55.503 -37.002)" fill="#a47ad7"/><path d="M97.833,112.039a1.833,1.833,0,0,0,0,3.666h36.66a1.833,1.833,0,0,0,0-3.666Zm0,0" transform="translate(-77.167 -88.365)" fill="#a47ad7"/><path d="M170.159,168.039H129.833a1.833,1.833,0,1,0,0,3.666h40.326a1.833,1.833,0,0,0,0-3.666Zm0,0" transform="translate(-103.124 -132.547)" fill="#a47ad7"/><path d="M96.326,217.872a1.833,1.833,0,0,0-1.833-1.833H57.833a1.833,1.833,0,1,0,0,3.666h36.66A1.833,1.833,0,0,0,96.326,217.872Zm0,0" transform="translate(-43.169 -170.418)" fill="#a47ad7"/><path d="M262.664,216.039H249.833a1.833,1.833,0,1,0,0,3.666h12.831a1.833,1.833,0,0,0,0-3.666Zm0,0" transform="translate(-197.266 -170.418)" fill="#a47ad7"/><path d="M76.163,259.705a1.833,1.833,0,1,0,0-3.666H57.833a1.833,1.833,0,0,0,0,3.666Zm0,0" transform="translate(-43.169 -201.977)" fill="#a47ad7"/><path d="M169.833,259.705h12.831a1.833,1.833,0,1,0,0-3.666H169.833a1.833,1.833,0,1,0,0,3.666Zm0,0" transform="translate(-133.632 -201.977)" fill="#a47ad7"/><path d="M72.683,77.919a1.656,1.656,0,0,0-1.615,1.693V96.543a1.655,1.655,0,0,1-1.615,1.693H4.846A1.655,1.655,0,0,1,3.23,96.543V5.118A1.656,1.656,0,0,1,4.846,3.425H69.453a1.656,1.656,0,0,1,1.615,1.693v31.8a1.617,1.617,0,1,0,3.23,0V5.118A4.967,4.967,0,0,0,69.453.039H4.846A4.967,4.967,0,0,0,0,5.118V96.543a4.966,4.966,0,0,0,4.846,5.079H69.453A4.966,4.966,0,0,0,74.3,96.543V79.612A1.656,1.656,0,0,0,72.683,77.919Zm0,0" fill="#a47ad7"/></g></svg>