<svg xmlns="http://www.w3.org/2000/svg" xmlns:xlink="http://www.w3.org/1999/xlink" width="363.427" height="308.121" viewBox="0 0 363.427 308.121"><defs><linearGradient id="a" x1="0.042" y1="0.029" x2="0.968" y2="0.967" gradientUnits="objectBoundingBox"><stop offset="0" stop-color="#407bff"/><stop offset="0" stop-color="#5cb7f0"/><stop offset="1" stop-color="#d651c7"/></linearGradient></defs><g transform="translate(-368.5 -1583)"><g transform="translate(293.378 1471.429)"><path d="M403.287,418.426H235.047a5.133,5.133,0,0,1-5.2-5.78l28.869-286.418a6.544,6.544,0,0,1,6.365-5.781h168.24a5.134,5.134,0,0,1,5.2,5.781L409.651,412.646A6.543,6.543,0,0,1,403.287,418.426Z" fill="#819af6"/><path d="M378.1,142.147H315.931a4.122,4.122,0,0,1-4.175-4.642l1.736-17.227a.941.941,0,0,1,.915-.831H384.2a.739.739,0,0,1,.748.831l-1.737,17.227A5.254,5.254,0,0,1,378.1,142.147Z" fill="#263238"/><path d="M350.1,111.571a5.262,5.262,0,0,0-5.117,4.648l-.727,7.218h9.3l.727-7.218A4.128,4.128,0,0,0,350.1,111.571Zm-.7,6.922a1.668,1.668,0,0,1-1.69-1.879,2.126,2.126,0,0,1,2.068-1.879,1.669,1.669,0,0,1,1.69,1.879A2.126,2.126,0,0,1,349.4,118.493Z" fill="#263238"/><path d="M378.6,124.433,377.345,136.9H352.176a4.12,4.12,0,0,0-4.19-4.369,5.274,5.274,0,0,0-5.08,4.369H317.735l1.257-12.467Z" fill="none" stroke="#fff" stroke-linecap="round" stroke-linejoin="round" stroke-width="2"/><path d="M373.9,124.5a1.625,1.625,0,0,1,.786-1.36h-52a1.625,1.625,0,0,0-.786,1.36c-.108,1.079.513,1.36.513,1.36h52S373.791,125.579,373.9,124.5Z" fill="#a47ad7"/><path d="M403.846,409.679H237.078l28.271-280.485H432.117Z" fill="#fff"/><path d="M418.883,158.791H272.717a.5.5,0,0,1,0-1H418.883a.5.5,0,0,1,0,1Z" fill="#263238"/><path d="M291.757,145.521a8.973,8.973,0,0,1-8.727,7.927,7.04,7.04,0,0,1-7.13-7.927,8.974,8.974,0,0,1,8.728-7.927A7.04,7.04,0,0,1,291.757,145.521Z" fill="#407bff"/><path d="M279.317,144.333s-4.258,5.614-2.981,7.328,13.094-7.911,15.932-11.207-.493-1.977-.493-1.977,1.251.069.583,1.088c-1.363,2.076-12.594,9.492-13.741,9.1S279.317,144.333,279.317,144.333Z" fill="#263238"/><path d="M418.643,142.863H403.61a1,1,0,0,1,0-2h15.033a1,1,0,0,1,0,2Z" fill="#263238"/><path d="M418.173,147.521h-9.692a1,1,0,0,1,0-2h9.692a1,1,0,0,1,0,2Z" fill="#263238"/><path d="M417.7,152.179H392.385a1,1,0,0,1,0-2H417.7a1,1,0,0,1,0,2Z" fill="#263238"/><path d="M310.527,170.788a4.831,4.831,0,0,1,4.932-4.317,3.832,3.832,0,0,1,3.181,1.4l-1.1.948a2.651,2.651,0,0,0-2.143-.984,3.234,3.234,0,0,0-3.3,2.95,2.553,2.553,0,0,0,2.7,2.951,3.238,3.238,0,0,0,2.343-1l.91.96a4.711,4.711,0,0,1-3.475,1.4A3.8,3.8,0,0,1,310.527,170.788Z"/><path d="M319.071,170.788a4.855,4.855,0,0,1,4.956-4.317,3.819,3.819,0,0,1,4.087,4.317,4.848,4.848,0,0,1-4.957,4.318A3.825,3.825,0,0,1,319.071,170.788Zm7.471,0a2.546,2.546,0,0,0-2.652-2.95,3.231,3.231,0,0,0-3.248,2.95,2.547,2.547,0,0,0,2.653,2.951A3.232,3.232,0,0,0,326.542,170.788Z"/><path d="M337.657,166.591l-.846,8.395h-1.283l-4.057-5.685-.573,5.685h-1.547l.846-8.395h1.283l4.057,5.685.573-5.685Z"/><path d="M341.487,167.91H338.7l.132-1.319h7.124l-.132,1.319h-2.783l-.713,7.076h-1.559Z"/><path d="M351.788,174.986l-1.468-2.459a2.709,2.709,0,0,1-.324.013H348.1l-.247,2.446H346.3l.846-8.395H350.6c2.207,0,3.461,1.127,3.274,2.986a3.045,3.045,0,0,1-2.055,2.65l1.653,2.759Zm-1.4-7.076h-1.823l-.337,3.346h1.823c1.367,0,2.138-.624,2.244-1.679S351.758,167.91,350.39,167.91Z"/><path d="M360.708,173.043h-4.2l-1.023,1.943h-1.608l4.624-8.395h1.536l2.943,8.395h-1.63Zm-.393-1.223-1.213-3.67-1.941,3.67Z"/><path d="M363.758,170.788a4.831,4.831,0,0,1,4.933-4.317,3.83,3.83,0,0,1,3.18,1.4l-1.1.948a2.652,2.652,0,0,0-2.144-.984,3.235,3.235,0,0,0-3.3,2.95,2.553,2.553,0,0,0,2.7,2.951,3.237,3.237,0,0,0,2.343-1l.911.96a4.711,4.711,0,0,1-3.476,1.4A3.8,3.8,0,0,1,363.758,170.788Z"/><path d="M374.979,167.91H372.2l.133-1.319h7.124l-.133,1.319h-2.782l-.713,7.076h-1.559Z"/><path d="M305.669,186.79H271.706a1,1,0,0,1,0-2h33.963a1,1,0,0,1,0,2Z" fill="#263238"/><path d="M288.143,192.192H271.161a1,1,0,0,1,0-2h16.982a1,1,0,0,1,0,2Z" fill="#263238"/><path d="M409.91,220.422H268.316a1,1,0,0,1,0-2H409.91a1,1,0,0,1,0,2Z" fill="#263238"/><path d="M409.289,226.585H267.7a1,1,0,0,1,0-2H409.289a1,1,0,0,1,0,2Z" fill="#263238"/><path d="M408.667,232.748H267.073a1,1,0,0,1,0-2H408.667a1,1,0,0,1,0,2Z" fill="#263238"/><path d="M408.046,238.911H266.452a1,1,0,0,1,0-2H408.046a1,1,0,0,1,0,2Z" fill="#263238"/><path d="M407.425,245.073H265.831a1,1,0,0,1,0-2H407.425a1,1,0,0,1,0,2Z" fill="#263238"/><path d="M406.8,251.236H265.21a1,1,0,0,1,0-2H406.8a1,1,0,0,1,0,2Z" fill="#263238"/><path d="M406.183,257.4H264.589a1,1,0,1,1,0-2H406.183a1,1,0,1,1,0,2Z" fill="#263238"/><path d="M405.561,263.563H263.968a1,1,0,0,1,0-2H405.561a1,1,0,0,1,0,2Z" fill="#263238"/><path d="M334.94,269.725H263.346a1,1,0,0,1,0-2H334.94a1,1,0,1,1,0,2Z" fill="#263238"/><path d="M414.351,186.79H389.934a1,1,0,0,1,0-2h24.417a1,1,0,0,1,0,2Z" fill="#263238"/><path d="M404.161,278.081H277.644a1,1,0,0,1,0-2H404.161a1,1,0,0,1,0,2Z" fill="#263238"/><path d="M403.477,284.244H261.883a1,1,0,1,1,0-2H403.477a1,1,0,0,1,0,2Z" fill="#263238"/><path d="M402.855,290.407H261.262a1,1,0,0,1,0-2H402.855a1,1,0,0,1,0,2Z" fill="#263238"/><path d="M402.234,296.57H260.641a1,1,0,0,1,0-2H402.234a1,1,0,0,1,0,2Z" fill="#263238"/><path d="M401.613,302.732H260.02a1,1,0,0,1,0-2H401.613a1,1,0,0,1,0,2Z" fill="#263238"/><path d="M310.992,308.9H259.4a1,1,0,0,1,0-2h51.594a1,1,0,1,1,0,2Z" fill="#263238"/><g opacity="0.2" style="isolation:isolate"><path d="M403.846,409.679H237.078l28.271-280.485H432.117Z"/></g><path d="M376.857,401.208H210.088c30.62-90.217,49.12-181.8,53.26-272.014H430.117C425.977,219.411,407.477,310.991,376.857,401.208Z" fill="#fff"/><path d="M417.109,157.795H270.943a.51.51,0,0,1-.513-.484.475.475,0,0,1,.486-.483H417.083a.507.507,0,0,1,.513.483A.476.476,0,0,1,417.109,157.795Z" fill="#263238"/><path d="M289.544,144.962a8.455,8.455,0,0,1-8.443,7.664,7.211,7.211,0,0,1-7.414-7.664,8.387,8.387,0,0,1,8.379-7.658A7.259,7.259,0,0,1,289.544,144.962Z" fill="#407bff"/><path d="M277.055,143.813c.006,0-4.034,5.427-2.706,7.085,1.346,1.657,12.819-7.649,15.491-10.832,2.687-3.184-.586-1.91-.584-1.91s1.254.067.633,1.05c-1.257,2.005-12.2,9.173-13.365,8.792S277.058,143.813,277.055,143.813Z" fill="#263238"/><path d="M416.32,142.393H401.287a1.038,1.038,0,0,1-1.043-.966.93.93,0,0,1,.956-.966h15.032a1.037,1.037,0,0,1,1.044.966A.931.931,0,0,1,416.32,142.393Z" fill="#263238"/><path d="M416.038,146.9h-9.693a1.033,1.033,0,0,1-1.038-.966.939.939,0,0,1,.961-.967h9.692a1.035,1.035,0,0,1,1.039.967A.936.936,0,0,1,416.038,146.9Z" fill="#263238"/><path d="M415.733,151.4H390.414a1.026,1.026,0,0,1-1.033-.967.942.942,0,0,1,.965-.967h25.319a1.028,1.028,0,0,1,1.035.967A.942.942,0,0,1,415.733,151.4Z" fill="#263238"/><path d="M309,169.411a4.684,4.684,0,0,1,4.862-4.181,3.959,3.959,0,0,1,3.2,1.358l-1.087.918a2.742,2.742,0,0,0-2.16-.953,3.139,3.139,0,0,0-3.249,2.858,2.544,2.544,0,0,0,2.738,2.859,3.253,3.253,0,0,0,2.331-.965q.462.464.922.929a4.734,4.734,0,0,1-3.46,1.36C310.53,173.594,308.781,171.839,309,169.411Z"/><path d="M317.541,169.411a4.708,4.708,0,0,1,4.885-4.181c2.6,0,4.374,1.765,4.158,4.181a4.724,4.724,0,0,1-4.905,4.183C319.076,173.594,317.327,171.816,317.541,169.411Zm7.471,0a2.544,2.544,0,0,0-2.7-2.858,3.135,3.135,0,0,0-3.2,2.858,2.538,2.538,0,0,0,2.691,2.859A3.143,3.143,0,0,0,325.012,169.411Z"/><path d="M336.058,165.346q-.345,4.065-.726,8.132h-1.284q-2.057-2.754-4.13-5.507-.24,2.753-.5,5.507h-1.546q.381-4.068.726-8.132h1.283q2.082,2.753,4.146,5.506.25-2.754.484-5.506Z"/><path d="M339.912,166.623h-2.783q.055-.639.109-1.277h7.124q-.054.638-.109,1.277h-2.782q-.3,3.426-.618,6.855h-1.559Q339.615,170.049,339.912,166.623Z"/><path d="M350.308,173.478q-.747-1.191-1.5-2.382a2.964,2.964,0,0,1-.325.011h-1.9q-.108,1.185-.219,2.371h-1.559q.383-4.068.727-8.132H349c2.206,0,3.482,1.091,3.324,2.892A2.909,2.909,0,0,1,350.3,170.8q.844,1.337,1.684,2.673Zm-1.493-6.855h-1.823q-.141,1.62-.286,3.241h1.823c1.367,0,2.131-.6,2.22-1.626S350.182,166.623,348.815,166.623Z"/><path d="M359.207,171.6h-4.2q-.5.941-1,1.882H352.4q2.27-4.068,4.5-8.132h1.535q1.549,4.065,3.064,8.132h-1.631Q359.54,172.536,359.207,171.6Zm-.408-1.185q-.632-1.779-1.268-3.555-.941,1.777-1.886,3.555Z"/><path d="M362.228,169.411a4.686,4.686,0,0,1,4.862-4.181,3.959,3.959,0,0,1,3.205,1.358l-1.087.918a2.738,2.738,0,0,0-2.16-.953,3.14,3.14,0,0,0-3.249,2.858,2.545,2.545,0,0,0,2.739,2.859,3.254,3.254,0,0,0,2.331-.965l.921.929a4.74,4.74,0,0,1-3.46,1.36C363.761,173.594,362.012,171.839,362.228,169.411Z"/><path d="M373.4,166.623h-2.782q.054-.639.109-1.277h7.124q-.054.638-.109,1.277h-2.783q-.3,3.426-.617,6.855h-1.559Q373.107,170.049,373.4,166.623Z"/><path d="M304.236,184.919H270.272a.97.97,0,1,1,0-1.939h33.963a.97.97,0,1,1,0,1.939Z" fill="#263238"/><path d="M286.684,190.159H269.7a.975.975,0,0,1-.993-.97.994.994,0,0,1,1.006-.97H286.7a.978.978,0,0,1,.994.97A.994.994,0,0,1,286.684,190.159Z" fill="#263238"/><path d="M407.833,217.562H266.239a.943.943,0,0,1-.964-.971,1.029,1.029,0,0,1,1.035-.971H407.9a.946.946,0,0,1,.966.971A1.032,1.032,0,0,1,407.833,217.562Z" fill="#263238"/><path d="M406.97,223.549H265.376a.937.937,0,0,1-.958-.971,1.038,1.038,0,0,1,1.041-.972H407.053a.938.938,0,0,1,.959.972A1.041,1.041,0,0,1,406.97,223.549Z" fill="#263238"/><path d="M406.068,229.537H264.474a.929.929,0,0,1-.952-.971,1.045,1.045,0,0,1,1.047-.972H406.163a.932.932,0,0,1,.953.972A1.048,1.048,0,0,1,406.068,229.537Z" fill="#263238"/><path d="M405.127,235.527H263.534a.923.923,0,0,1-.946-.972,1.055,1.055,0,0,1,1.053-.972H405.235a.924.924,0,0,1,.947.972A1.058,1.058,0,0,1,405.127,235.527Z" fill="#263238"/><path d="M404.149,241.516H262.555a.917.917,0,0,1-.939-.972,1.062,1.062,0,0,1,1.059-.972H404.269a.915.915,0,0,1,.94.972A1.065,1.065,0,0,1,404.149,241.516Z" fill="#263238"/><path d="M403.132,247.507H261.538a.91.91,0,0,1-.933-.972,1.071,1.071,0,0,1,1.066-.972H403.264a.909.909,0,0,1,.935.972A1.072,1.072,0,0,1,403.132,247.507Z" fill="#263238"/><path d="M402.077,253.5H260.483a.9.9,0,0,1-.927-.972,1.08,1.08,0,0,1,1.072-.972H402.222a.9.9,0,0,1,.927.972A1.081,1.081,0,0,1,402.077,253.5Z" fill="#263238"/><path d="M400.983,259.49H259.389a.9.9,0,0,1-.921-.972,1.09,1.09,0,0,1,1.079-.972H401.14a.9.9,0,0,1,.922.972A1.09,1.09,0,0,1,400.983,259.49Z" fill="#263238"/><path d="M329.851,265.481h-71.6a.89.89,0,0,1-.914-.972,1.1,1.1,0,0,1,1.085-.972h71.594a.888.888,0,0,1,.915.972A1.1,1.1,0,0,1,329.851,265.481Z" fill="#263238"/><path d="M412.917,184.919H388.5a.97.97,0,1,1,0-1.939H412.92a.97.97,0,1,1,0,1.939Z" fill="#263238"/><path d="M398.317,273.605H271.8a.879.879,0,0,1-.906-.972,1.106,1.106,0,0,1,1.093-.972H398.5a.879.879,0,0,1,.907.972A1.108,1.108,0,0,1,398.317,273.605Z" fill="#263238"/><path d="M397.032,279.6H255.438a.873.873,0,0,1-.9-.972,1.119,1.119,0,0,1,1.1-.972H397.231a.873.873,0,0,1,.9.972A1.118,1.118,0,0,1,397.032,279.6Z" fill="#263238"/><path d="M395.77,285.588H254.177a.867.867,0,0,1-.894-.972,1.127,1.127,0,0,1,1.106-.972H395.982a.867.867,0,0,1,.9.972A1.129,1.129,0,0,1,395.77,285.588Z" fill="#263238"/><path d="M394.471,291.579H252.878a.861.861,0,0,1-.888-.972,1.137,1.137,0,0,1,1.112-.972H394.7a.861.861,0,0,1,.889.972A1.141,1.141,0,0,1,394.471,291.579Z" fill="#263238"/><path d="M393.134,297.567H251.541a.855.855,0,0,1-.882-.971,1.145,1.145,0,0,1,1.118-.972H393.371a.856.856,0,0,1,.882.972A1.145,1.145,0,0,1,393.134,297.567Z" fill="#263238"/><path d="M301.758,303.556H250.165a.848.848,0,0,1-.875-.971,1.154,1.154,0,0,1,1.124-.972h51.594a.85.85,0,0,1,.876.972A1.156,1.156,0,0,1,301.758,303.556Z" fill="#263238"/><g opacity="0.1"><path d="M376.857,401.208H210.088c30.62-90.217,49.12-181.8,53.26-272.014H430.117C425.977,219.411,407.477,310.991,376.857,401.208Z"/></g></g><g transform="translate(293.378 1471.429)"><path d="M354.215,383.547H187.447c38.46-84.36,63.92-169.994,75.9-254.353H430.117C418.135,213.553,392.676,299.187,354.215,383.547Z" fill="#fff"/><path d="M415.624,155.938H269.457a.444.444,0,0,1-.471-.452.516.516,0,0,1,.529-.453H415.681a.442.442,0,0,1,.471.453A.515.515,0,0,1,415.624,155.938Z" fill="#263238"/><path d="M289.173,143.938c-.634,3.957-4.732,7.167-9.109,7.167s-7.382-3.21-6.747-7.167,4.666-7.161,9.045-7.161S289.807,139.982,289.173,143.938Z" fill="#407bff"/><path d="M276.785,142.864c.005,0-4.507,5.074-3.322,6.625,1.2,1.549,13.483-7.153,16.432-10.129s-.42-1.786-.418-1.786,1.249.063.542.982c-1.431,1.875-13,8.578-14.129,8.221S276.787,142.864,276.785,142.864Z" fill="#263238"/><path d="M416.172,141.536H401.14a.9.9,0,0,1-.959-.9,1.007,1.007,0,0,1,1.039-.9h15.033a.9.9,0,0,1,.96.9A1.009,1.009,0,0,1,416.172,141.536Z" fill="#263238"/><path d="M415.5,145.746h-9.692a.9.9,0,0,1-.955-.9,1.017,1.017,0,0,1,1.045-.9h9.693a.9.9,0,0,1,.955.9A1.015,1.015,0,0,1,415.5,145.746Z" fill="#263238"/><path d="M414.8,149.958H389.485a.9.9,0,0,1-.95-.9,1.021,1.021,0,0,1,1.049-.9H414.9a.9.9,0,0,1,.951.9A1.022,1.022,0,0,1,414.8,149.958Z" fill="#263238"/><path d="M256.879,369.428H205.7a.667.667,0,0,1-.706-.9,1.429,1.429,0,0,1,1.294-.9h51.176a.666.666,0,0,1,.706.9A1.43,1.43,0,0,1,256.879,369.428Z" fill="#263238"/><path d="M348.781,369.428H289.734a.666.666,0,0,1-.706-.9,1.43,1.43,0,0,1,1.294-.9h59.047a.666.666,0,0,1,.706.9A1.429,1.429,0,0,1,348.781,369.428Z" fill="#263238"/><path d="M266.075,317.065H238.944a.714.714,0,0,1-.763-.908,1.32,1.32,0,0,1,1.235-.908h27.132a.714.714,0,0,1,.764.908A1.324,1.324,0,0,1,266.075,317.065Z" fill="#263238"/><path d="M360.238,317.065H320.714a.714.714,0,0,1-.763-.908,1.319,1.319,0,0,1,1.236-.908h39.524a.714.714,0,0,1,.764.908A1.323,1.323,0,0,1,360.238,317.065Z" fill="#263238"/><path d="M317.107,358.833a4.808,4.808,0,0,1-2.412-.518c-1.279-.737-1.585-1.986-.9-3.611a6.851,6.851,0,0,1,.345-.7,45.019,45.019,0,0,1-12.034,2.934c-2.46.156-3.055-.8-3.122-1.645-.118-1.489,1.346-3.867,3.678-6.613-5.4,2.415-9.368,3.892-9.447,3.922-.284.106-.551.006-.6-.221a.591.591,0,0,1,.427-.6c.09-.033,4.8-1.79,10.946-4.605,6.239-6.8,16.615-15.155,22.009-18.023,3.87-2.054,6.115-2.612,6.694-1.661.9,1.494-3.515,5.97-10.807,10.881a127.623,127.623,0,0,1-17.317,9.442c-2.818,3.085-4.665,5.738-4.551,7.18.024.292.1,1.184,2.293,1.041a45.625,45.625,0,0,0,12.6-3.219c3.121-4.213,10.37-9.2,13.691-10.029,1.28-.32,1.788.01,1.99.342.189.315.271.88-.424,1.779-1.771,2.3-7.916,5.9-14.671,8.573a7.54,7.54,0,0,0-.74,1.316c-.534,1.267-.322,2.158.656,2.723,2.245,1.294,8.04-.546,13.726-3.188a3.54,3.54,0,0,1,.271-.9c1.6-3.642,9.423-9.278,13.587-9.032.826.049,1.021.418,1.041.718.086,1.316-3.434,3.77-6.407,5.6a82.527,82.527,0,0,1-7.444,4.026c.136.493.623.806,1.47.947,6.187,1.02,20.655-8.049,20.785-8.141a.5.5,0,0,1,.691.045.488.488,0,0,1-.243.639c-.6.387-15.059,9.449-21.681,8.348-1.115-.185-1.8-.663-2.019-1.372C324.777,357.233,320.185,358.832,317.107,358.833Zm25.348-13.539c-3.657,0-10.713,5.141-12.079,8.241-.038.09-.075.177-.1.261,2.482-1.2,4.9-2.529,6.933-3.781,4.279-2.63,5.829-4.23,5.8-4.619,0-.025-.086-.08-.339-.1Q342.566,345.294,342.455,345.294Zm-13.191-1.732a2.758,2.758,0,0,0-.626.093c-2.86.716-8.917,4.834-12.111,8.514,6.007-2.5,11.3-5.631,12.835-7.62.3-.387.4-.673.291-.848C329.591,343.6,329.442,343.562,329.264,343.562Zm2.129-15.611c-.612,0-2.057.371-5.031,1.948-5.163,2.743-14.2,10.075-20.255,16.291a120.481,120.481,0,0,0,15.3-8.483c7.673-5.175,10.762-8.977,10.356-9.65C331.726,328,331.615,327.951,331.393,327.951Z" fill="#263238"/><path d="M306.5,166.8a5.146,5.146,0,0,1,5.226-3.91,3.727,3.727,0,0,1,3.087,1.27l-1.167.859a2.571,2.571,0,0,0-2.077-.891,3.441,3.441,0,0,0-3.5,2.672c-.3,1.564.752,2.673,2.49,2.673a3.678,3.678,0,0,0,2.415-.9l.841.87a5.355,5.355,0,0,1-3.579,1.271C307.671,170.711,306.074,169.07,306.5,166.8Z"/><path d="M315.045,166.8a5.174,5.174,0,0,1,5.25-3.91c2.6,0,4.22,1.65,3.793,3.91a5.189,5.189,0,0,1-5.268,3.911C316.217,170.711,314.622,169.049,315.045,166.8Zm7.472,0a2.214,2.214,0,0,0-2.451-2.672,3.434,3.434,0,0,0-3.45,2.672,2.209,2.209,0,0,0,2.443,2.673A3.447,3.447,0,0,0,322.517,166.8Z"/><path d="M333.916,163q-.7,3.8-1.433,7.6H331.2q-1.818-2.575-3.652-5.15-.48,2.574-.978,5.15h-1.547q.733-3.8,1.433-7.6h1.283q1.843,2.574,3.667,5.149.49-2.574.963-5.149Z"/><path d="M337.659,164.193h-2.783q.111-.6.22-1.195h7.124q-.109.6-.22,1.195h-2.782q-.594,3.2-1.214,6.41h-1.559Q337.064,167.4,337.659,164.193Z"/><path d="M347.459,170.6q-.644-1.114-1.288-2.228a3.247,3.247,0,0,1-.325.011h-1.9q-.21,1.108-.425,2.217h-1.559q.736-3.8,1.434-7.6h3.454c2.2,0,3.388,1.021,3.073,2.705a3.122,3.122,0,0,1-2.241,2.4q.729,1.25,1.452,2.5Zm-.9-6.41h-1.822q-.282,1.515-.568,3.03h1.823c1.368,0,2.183-.565,2.362-1.52S347.929,164.193,346.561,164.193Z"/><path d="M356.521,168.842h-4.2l-1.166,1.761h-1.607q2.623-3.8,5.211-7.6H356.3q1.2,3.8,2.357,7.6h-1.631Q356.772,169.723,356.521,168.842Zm-.3-1.107q-.477-1.663-.96-3.325-1.093,1.662-2.194,3.325Z"/><path d="M359.733,166.8a5.146,5.146,0,0,1,5.225-3.91,3.727,3.727,0,0,1,3.087,1.27q-.582.431-1.167.859a2.567,2.567,0,0,0-2.077-.891,3.442,3.442,0,0,0-3.5,2.672c-.293,1.564.751,2.673,2.491,2.673a3.68,3.68,0,0,0,2.415-.9l.84.87a5.364,5.364,0,0,1-3.578,1.271C360.9,170.711,359.3,169.07,359.733,166.8Z"/><path d="M371.15,164.193h-2.782q.109-.6.22-1.195h7.124q-.109.6-.22,1.195h-2.783q-.593,3.2-1.213,6.41h-1.559Q370.557,167.4,371.15,164.193Z"/><path d="M300.393,181.3H266.429a.854.854,0,0,1-.914-.906,1.072,1.072,0,0,1,1.085-.907h33.964a.856.856,0,0,1,.915.907A1.073,1.073,0,0,1,300.393,181.3Z" fill="#263238"/><path d="M282.385,186.2H265.4a.848.848,0,0,1-.908-.907,1.081,1.081,0,0,1,1.09-.906h16.982a.85.85,0,0,1,.91.906A1.084,1.084,0,0,1,282.385,186.2Z" fill="#263238"/><path d="M401.152,211.825H259.559a.82.82,0,0,1-.88-.908,1.124,1.124,0,0,1,1.119-.909H401.392a.822.822,0,0,1,.88.909A1.126,1.126,0,0,1,401.152,211.825Z" fill="#263238"/><path d="M399.769,217.423H258.175a.813.813,0,0,1-.873-.909,1.134,1.134,0,0,1,1.125-.908H400.021a.814.814,0,0,1,.874.908A1.137,1.137,0,0,1,399.769,217.423Z" fill="#263238"/><path d="M398.346,223.022H256.753a.808.808,0,0,1-.868-.908,1.142,1.142,0,0,1,1.132-.909H398.61a.81.81,0,0,1,.869.909A1.147,1.147,0,0,1,398.346,223.022Z" fill="#263238"/><path d="M396.885,228.623H255.292a.8.8,0,0,1-.861-.909,1.154,1.154,0,0,1,1.138-.909H397.162a.8.8,0,0,1,.862.909A1.156,1.156,0,0,1,396.885,228.623Z" fill="#263238"/><path d="M395.387,234.223H253.793a.8.8,0,0,1-.855-.909,1.164,1.164,0,0,1,1.144-.909H395.676a.8.8,0,0,1,.856.909A1.168,1.168,0,0,1,395.387,234.223Z" fill="#263238"/><path d="M393.849,239.825H252.255a.79.79,0,0,1-.848-.909,1.174,1.174,0,0,1,1.15-.909H394.15a.79.79,0,0,1,.85.909A1.175,1.175,0,0,1,393.849,239.825Z" fill="#263238"/><path d="M392.273,245.427H250.679a.783.783,0,0,1-.842-.909,1.185,1.185,0,0,1,1.156-.909H392.587a.785.785,0,0,1,.843.909A1.186,1.186,0,0,1,392.273,245.427Z" fill="#263238"/><path d="M390.658,251.03H249.065a.776.776,0,0,1-.836-.909,1.193,1.193,0,0,1,1.162-.909H390.985a.778.778,0,0,1,.837.909A1.2,1.2,0,0,1,390.658,251.03Z" fill="#263238"/><path d="M319.006,256.632h-71.6a.772.772,0,0,1-.83-.909,1.206,1.206,0,0,1,1.169-.909h71.6a.771.771,0,0,1,.83.909A1.2,1.2,0,0,1,319.006,256.632Z" fill="#263238"/><path d="M409.074,181.3H384.657a.855.855,0,0,1-.914-.906,1.072,1.072,0,0,1,1.085-.907h24.417a.856.856,0,0,1,.915.907A1.072,1.072,0,0,1,409.074,181.3Z" fill="#263238"/><path d="M386.765,264.229H260.248a.763.763,0,0,1-.821-.909,1.214,1.214,0,0,1,1.177-.909H387.121a.763.763,0,0,1,.822.909A1.219,1.219,0,0,1,386.765,264.229Z" fill="#263238"/><path d="M384.959,269.831H243.365a.757.757,0,0,1-.815-.909,1.231,1.231,0,0,1,1.184-.909H385.328a.758.758,0,0,1,.816.909A1.229,1.229,0,0,1,384.959,269.831Z" fill="#263238"/><path d="M383.177,275.434H241.584a.752.752,0,0,1-.809-.909,1.238,1.238,0,0,1,1.19-.909H383.558a.752.752,0,0,1,.811.909A1.244,1.244,0,0,1,383.177,275.434Z" fill="#263238"/><path d="M381.358,281.035H239.764a.746.746,0,0,1-.8-.909,1.25,1.25,0,0,1,1.2-.908H381.751a.747.747,0,0,1,.8.908A1.254,1.254,0,0,1,381.358,281.035Z" fill="#263238"/><path d="M379.5,286.635H237.907a.741.741,0,0,1-.8-.908,1.26,1.26,0,0,1,1.2-.909H379.9a.742.742,0,0,1,.8.909A1.262,1.262,0,0,1,379.5,286.635Z" fill="#263238"/><path d="M287.6,292.235H236.01a.736.736,0,0,1-.79-.908,1.272,1.272,0,0,1,1.208-.909h51.594a.738.738,0,0,1,.792.909A1.274,1.274,0,0,1,287.6,292.235Z" fill="#263238"/><g opacity="0.2"><path d="M282.233,337.128c.51-.446,1.786-1.433,2.552-2.022.331-.255.762-.282.944-.06l1.286,1.572s-1.425,1.592-1.882,2.131c-4.6,5.455-7.351,10.692-6.984,11.694,4.7-.482,35.406-15.51,49.163-24.343-3.055-6.376-10.315-10.359-20.205-9.908-14.078.641-29.2,10.471-35.684,22.948a25.634,25.634,0,0,0-3.2,12.467A122.448,122.448,0,0,1,282.233,337.128Z"/><path d="M273.1,362.8c3.373,3.13,8.381,4.981,14.681,4.981,15.731,0,33.571-11.526,39.319-25.783a21.9,21.9,0,0,0,1.663-10.9C314.67,341.147,287.307,357.6,273.1,362.8Z"/><path d="M283.507,338.123c.055,0-20.675,18.281-17.922,23.847,2.937,5.58,55.1-25.725,68.007-36.486,13.087-10.747-.056-6.449-.043-6.449,0,0,4.439.228,1.149,3.548-6.588,6.779-54.064,30.925-57.882,29.633C273.119,350.931,283.536,338.125,283.507,338.123Z"/></g><path d="M220.072,360.7c-7.353,0-8.825-2.854-8.751-5.307.254-7.28,14.447-19.736,29.25-25.626,8.127-3.229,14.611-3.432,16.518-.512,1.565,2.4-.358,6.384-5.315,10.925-9.8,8.961-17.9,11-21.482,9.056a3.226,3.226,0,0,1-1.237-1.116q-1.363.639-2.951,1.308c-.282.118-.558.033-.619-.188a.567.567,0,0,1,.39-.611c1.058-.445,2.006-.867,2.858-1.268a3.677,3.677,0,0,1,.681-2.894A6.968,6.968,0,0,1,235,341.4c.945.046,1.492.468,1.462,1.13-.063,1.3-2.3,3.074-6.392,5.1a2.625,2.625,0,0,0,.925.8c2.426,1.321,9.473.959,20.128-8.784,4.559-4.176,6.383-7.751,5.042-9.808-1.662-2.548-7.839-2.249-15.376.741C226.4,336.3,212.6,348.256,212.359,355.171c-.1,3.205,2.967,4.805,8.939,4.607,7.618-.242,15.676-3.344,22.446-7,2.135-4.094,8.37-9.412,14.964-12.606,1.322-.64,2.078-.782,2.433-.462.275.245.22.668-.164,1.257-1.375,2.121-7.931,7.6-16.433,12.24a6.715,6.715,0,0,0-.292.7,2.42,2.42,0,0,0,.5,2.894c2.819,2.34,13.067-4.634,16.742-7.521a.559.559,0,0,1,.717-.04c.159.165.091.452-.148.639-.553.45-14.152,10.96-18.127,7.652-.985-.819-1.217-2.076-.68-3.635-6.869,3.6-14.839,6.554-22.206,6.789C220.714,360.693,220.386,360.7,220.072,360.7Zm40.165-20.236a5.438,5.438,0,0,0-1.225.476c-5.707,2.762-11.285,7.311-13.73,10.983a76.945,76.945,0,0,0,12.011-8.344A13.427,13.427,0,0,0,260.237,340.463ZM234.563,342.3a5.636,5.636,0,0,0-4.284,2.449,2.837,2.837,0,0,0-.535,2.12c4.34-2.151,5.655-3.574,5.681-4.145.015-.348-.514-.411-.744-.421C234.643,342.3,234.6,342.3,234.563,342.3Z" fill="#a47ad7"/></g><g transform="translate(293.378 1471.429)"><path d="M184.581,177.11s-18.428-18.233-40.542-19.364c0,0-13.182,31.924-19.573,63.584l43.891,7.824S174.388,196.3,184.581,177.11Z" fill="#407bff"/><path d="M184.58,177.11c-10.19,19.19-16.22,52.04-16.22,52.04l-43.89-7.82a328.508,328.508,0,0,1,8.83-33.49c2.4-7.61,4.76-14.32,6.65-19.47,2.43-6.6,4.09-10.62,4.09-10.62C166.15,158.88,184.58,177.11,184.58,177.11Z" fill="#fff" opacity="0.6" style="isolation:isolate"/><path d="M175.08,158.89c-.45.43-.9.88-1.31,1.35-.07.09-.15.17-.22.26a10.1,10.1,0,0,0-2.02,3.39,5.9,5.9,0,0,0-.28,1.67,7.228,7.228,0,0,0,2.49,5.18c-.08,2.2-5.76.06-5.76.06s-8.35-4.46-9.41-9.53c3.21-.66,6.12-4.23,8.41-8.18.58-1,1.12-2.04,1.62-3.05.86-1.76,1.58-3.48,2.13-4.91Z" fill="#e4897b"/><path d="M173.77,160.24c-.07.09-.15.17-.22.26a10.1,10.1,0,0,0-2.02,3.39,5.9,5.9,0,0,0-.28,1.67c-2.45-2.33-5.57-6.73-4.27-12.47a14.5,14.5,0,0,1,1.34-3.6l.28.55Z" opacity="0.2" style="isolation:isolate"/><path d="M196.1,140.113s-2.389,11.046-9.461,12.952.332-17.533.332-17.533Z" fill="#263238"/><path d="M167.386,155.235a10.142,10.142,0,0,0,9.484,7.817,11.29,11.29,0,0,0,7.892-2.611,11.745,11.745,0,0,0,.884-.812c5.158-5.342,10.277-16.173,5.123-22.926a11,11,0,0,0-18.64,1.763C168.458,145.61,165.964,149.638,167.386,155.235Z" fill="#e4897b"/><path d="M181.486,146.594a1.009,1.009,0,0,0,.068,1.412c.374.22.937-.069,1.271-.628s.3-1.2-.068-1.411S181.827,146.027,181.486,146.594Z" fill="#263238"/><path d="M187.853,150.351a1.014,1.014,0,0,0,.068,1.411c.366.215.937-.069,1.271-.627s.3-1.2-.068-1.412S188.17,149.818,187.853,150.351Z" fill="#263238"/><path d="M185.667,149.435a23.3,23.3,0,0,0-.153,6.406,3.782,3.782,0,0,1-3-1.092Z" fill="#de5753"/><path d="M191.819,149.024a.4.4,0,0,1-.342-.21,3.1,3.1,0,0,0-2.209-1.678.382.382,0,0,1,.073-.76h0a3.809,3.809,0,0,1,2.812,2.08.382.382,0,0,1-.148.519l-.008,0A.586.586,0,0,1,191.819,149.024Z" fill="#263238"/><path d="M181.729,143.3a.363.363,0,0,1-.145-.174.382.382,0,0,1,.3-.447h.008a3.8,3.8,0,0,1,3.368.978.38.38,0,0,1-.019.539h0a.393.393,0,0,1-.541-.02h0a3.094,3.094,0,0,0-2.68-.732A.391.391,0,0,1,181.729,143.3Z" fill="#263238"/><path d="M182.295,132.831l-1.269,3.333a2.639,2.639,0,0,0-2.723,2.321c-.379,3.167-4.028,6.464-6.908,7.026,0,0,.54-1.174-.566-1.411s-3.974,5.844-3.591,9.669c0,0-1.488-4.062.2-11.145,1.56-6.551,3.912-11.457,6.274-13.063Z" fill="#263238"/><path d="M165.761,142.354a7.642,7.642,0,0,0,1.809,5.554c1.754,2.025,4.106.809,4.859-1.617.648-2.163.565-5.879-1.808-6.995S165.984,139.88,165.761,142.354Z" fill="#e4897b"/><path d="M181.024,156.278a21.051,21.051,0,0,0-2.342,1.954c-.146-.106-.292-.211-.431-.324-1.936-1.479-2.345-2.805-2.212-3.826a3.139,3.139,0,0,1,.565-1.375,3.043,3.043,0,0,1,.571-.632,11.482,11.482,0,0,0,3.2,3.688C180.763,156.091,181.024,156.278,181.024,156.278Z" fill="#263238"/><path d="M180.372,155.763l-.7.558c-1.82-1.4-2.914-2.625-3.063-3.614a3.043,3.043,0,0,1,.571-.632A11.482,11.482,0,0,0,180.372,155.763Z" fill="#fff"/><path d="M178.251,157.908c-1.936-1.479-2.345-2.805-2.212-3.826a7.853,7.853,0,0,1,1.824,2.069A2.932,2.932,0,0,1,178.251,157.908Z" fill="#de5753"/><path d="M181.026,136.164s14.413,12.038,16.8.119c0,0-6.921-8.715-15.295-10.239s-10.867,6.8-10.867,6.8Z" fill="#263238"/><path d="M129.071,410.194H118.935a.732.732,0,0,0-.711.573l-1.645,7.429a1.233,1.233,0,0,0,1.221,1.486c3.279-.053,5.667-.255,9.785-.255,2.536,0,10.188.265,13.69.265s3.959-3.459,2.526-3.778c-6.431-1.4-11.271-3.343-13.329-5.19A2.017,2.017,0,0,0,129.071,410.194Z"/><path d="M172.053,409.929H161.918a.73.73,0,0,0-.711.573l-1.646,7.429a1.232,1.232,0,0,0,.95,1.459,1.175,1.175,0,0,0,.271.026c3.279-.053,5.667-.254,9.785-.254,2.537,0,10.189.265,13.691.265s3.958-3.46,2.526-3.778c-6.432-1.4-11.271-3.343-13.33-5.19A2.016,2.016,0,0,0,172.053,409.929Z"/><path d="M124.466,217.725,169.4,224.45c.515,2.81-.719,8.6-.719,8.6,5.206,34.083,15.53,114.471,7.23,178.1H160.92s1.388-110.093-11.848-145.67c-1.522,19.04-17,145.6-17,145.6H116.813s2.279-47.608,4.563-92.578c1.206-23.744-1.255-72.593,1.02-89.965Z" fill="#263238"/><path d="M149.076,265.49a118.621,118.621,0,0,1,4.946,19.157c1.238-16.944-3.715-34.913-3.715-34.913Z" opacity="0.2" style="isolation:isolate"/><path d="M136.763,226.11l25.382,3.816.647-5.033-25.3-3.778Z"/><path d="M135.354,220.8,123.8,219.07l-.954,4.948,11.825,1.778Z"/><path d="M164.778,225.19l-.926,4.993,4.928.741.62-5.043Z"/><path d="M155.343,223.8a2.331,2.331,0,0,0-1.449-.923l-4.021-.7a1.69,1.69,0,0,0-2.031,1.538l-.288,2.6a2.442,2.442,0,0,0,1.756,2.546,1.743,1.743,0,0,0,.174.038l4.021.692a1.69,1.69,0,0,0,2.027-1.538l.286-2.593A2.385,2.385,0,0,0,155.343,223.8Zm-1.813,4.729-4.021-.693a1.109,1.109,0,0,1-.7-.447,1.138,1.138,0,0,1-.231-.8l.288-2.6a.82.82,0,0,1,.984-.746l4.02.7c.029,0,.057.011.085.018a1.183,1.183,0,0,1,.847,1.234l-.043.394a.727.727,0,0,0-.154-.061l-1.125-.207a.587.587,0,0,0-.705.579.836.836,0,0,0,.656.828l1.125.207a.483.483,0,0,0,.054,0l-.094.853A.819.819,0,0,1,153.53,228.526Z" fill="#fff"/><path d="M161.264,168.368l1.528,7.423s-3.445,18.705,1.06,36.034l4.335,2.538,2.373-3.446s-6.724-16.91-5.15-33.73l3.99-5.453Z" fill="#263238"/><path d="M161.965,159.491l4.258,10,5.3-5.6,3.729,5.847a10.536,10.536,0,0,1-3.7,7.5l-5.506-5.535-8.381.97s-2.6-8.661-2.014-10.889S161.965,159.491,161.965,159.491Z" fill="#407bff"/><path d="M133.3,187.84c2.4-7.61,4.76-14.32,6.65-19.47l2.78-1.24S146.11,177.93,133.3,187.84Z" opacity="0.2" style="isolation:isolate"/><path d="M161.965,159.491l4.258,10,5.3-5.6,3.729,5.847a10.536,10.536,0,0,1-3.7,7.5l-5.506-5.535-8.381.97s-2.6-8.661-2.014-10.889S161.965,159.491,161.965,159.491Z" fill="#fff" opacity="0.4" style="isolation:isolate"/><path d="M144.039,157.746c-5.918-.284-17.884,13.825-20.917,16.331s-11.35,2.13-16.254-2.343c0,0-3.754-.757-5.374,1.816,0,0,7.977,11.4,19.234,10.158s18.58-11.974,18.58-11.974a24.674,24.674,0,0,0,4.731-7.284C145.637,160.363,144.039,157.746,144.039,157.746Z" fill="#407bff"/><path d="M144.039,157.746c-5.918-.284-17.884,13.825-20.917,16.331s-11.35,2.13-16.254-2.343c0,0-3.754-.757-5.374,1.816,0,0,7.977,11.4,19.234,10.158s18.58-11.974,18.58-11.974a24.674,24.674,0,0,0,4.731-7.284C145.637,160.363,144.039,157.746,144.039,157.746Z" fill="#fff" opacity="0.6" style="isolation:isolate"/><path d="M246.87,298.5l.835,1.975-1.946-.9-7.262-7.511,1.111-1.074Z" fill="#263238"/><path d="M1.379,0H6.251a1.38,1.38,0,0,1,1.38,1.38V22.511a0,0,0,0,1,0,0H0a0,0,0,0,1,0,0V1.379A1.379,1.379,0,0,1,1.379,0Z" transform="translate(75.122 127.465) rotate(-44.034)" fill="#263238"/><path d="M1.379,0H6.251a1.38,1.38,0,0,1,1.38,1.38V22.511a0,0,0,0,1,0,0H0a0,0,0,0,1,0,0V1.379A1.379,1.379,0,0,1,1.379,0Z" transform="translate(75.122 127.465) rotate(-44.034)" fill="#fff" opacity="0.1" style="isolation:isolate"/><path d="M93.684,133.7l-7.475,7.227a3.586,3.586,0,0,0-.174,4.974q66.156,73.475,137.519,142.054h0s10.389,8.419,20.476,10.575l1.847-1.787C244.064,286.585,236,275.917,236,275.917h0Q169.94,202.359,98.661,133.69A3.585,3.585,0,0,0,93.684,133.7Z" fill="url(#a)"/><path d="M97.046,126.7l-12.6,12.182a1.068,1.068,0,0,0-.025,1.51l1.224,1.265,12.81-12.385c19.348,18.212,33.929,34.872,33.929,34.872l-.5,1.356,4.561,2.772c-3.808-8.584-32.408-36.451-37.709-41.573A1.212,1.212,0,0,0,97.046,126.7Z" fill="#263238"/><rect width="21.204" height="4.073" transform="matrix(0.719, -0.695, 0.695, 0.719, 148.579, 213.205)" fill="#407bff"/><path d="M174.4,240.866q20.7,20.9,41.753,41.3a1.648,1.648,0,0,0,2.292,0L230.4,270.62a1.648,1.648,0,0,0,.078-2.29q-19.646-21.721-39.875-43.121a1.649,1.649,0,0,0-2.344-.054L174.43,238.521A1.649,1.649,0,0,0,174.4,240.866Z" fill="#263238"/><rect width="21.204" height="4.073" transform="matrix(0.719, -0.695, 0.695, 0.719, 148.579, 213.205)" opacity="0.2" style="isolation:isolate"/><path d="M97.046,126.7l-12.6,12.182a1.068,1.068,0,0,0-.025,1.51l1.224,1.265,12.81-12.385c19.348,18.212,33.929,34.872,33.929,34.872l-.5,1.356,4.561,2.772c-3.808-8.584-32.408-36.451-37.709-41.573A1.212,1.212,0,0,0,97.046,126.7Z" fill="#fff" opacity="0.6" style="isolation:isolate"/><path d="M174.4,240.866q20.7,20.9,41.753,41.3a1.648,1.648,0,0,0,2.292,0L230.4,270.62a1.648,1.648,0,0,0,.078-2.29q-19.646-21.721-39.875-43.121a1.649,1.649,0,0,0-2.344-.054L174.43,238.521A1.649,1.649,0,0,0,174.4,240.866Z" fill="#fff" opacity="0.1" style="isolation:isolate"/><path d="M195.434,222.582l-1.173,1.564a4.581,4.581,0,0,0-3.612.642s.1,3.972.267,4.5c.36,1.163,5.577,4.618,6.92,4.8.423.058,1.229-2.721,1.1-3.669a16.682,16.682,0,0,0-1.785-3.614l.98-1.4Z" fill="#e4897b"/><path d="M106.934,173.747l.159-1.253s.845.208,1.207-1.25,1.092-5.059.579-5.94a45.711,45.711,0,0,0-4.475-5.012c-.746-.645-2.473,2.4-2.859,3.813s1.569,6.872,1.569,6.872l-.08,2.372A4.422,4.422,0,0,0,106.934,173.747Z" fill="#e4897b"/><path d="M184.581,177.11c2.866,3.285,11.891,16.586,14.365,23.077,3.468,9.1,0,27.407,0,27.407l-6.035-4.045s1.132-13.934-.422-18.879-13.707-14.24-13.707-14.24a23.735,23.735,0,0,1,1.822-6.48A27.45,27.45,0,0,1,184.581,177.11Z" fill="#407bff"/><path d="M198.95,227.59l-6.04-4.04s1.13-13.93-.42-18.88c-.88-2.8-5.17-7-8.72-10.11-2.71-2.38-4.99-4.13-4.99-4.13a23.59,23.59,0,0,1,1.63-6.03c.06-.15.13-.3.19-.45a27.441,27.441,0,0,1,3.98-6.84c2.87,3.28,11.89,16.59,14.37,23.08C202.41,209.29,198.95,227.59,198.95,227.59Z" fill="#fff" opacity="0.6" style="isolation:isolate"/><path d="M183.77,194.56c-2.71-2.38-4.99-4.13-4.99-4.13a23.59,23.59,0,0,1,1.63-6.03A19.731,19.731,0,0,1,183.77,194.56Z" opacity="0.2" style="isolation:isolate"/></g></g></svg>