<svg xmlns="http://www.w3.org/2000/svg" xmlns:xlink="http://www.w3.org/1999/xlink" width="140.57" height="29.514" viewBox="0 0 140.57 29.514"><defs><linearGradient id="a" x1="1" y1="0.668" x2="0.018" y2="0.604" gradientUnits="objectBoundingBox"><stop offset="0" stop-color="#5cb7f0"/><stop offset="1" stop-color="#d651c7"/></linearGradient></defs><path d="M8.407-2.93A8.59,8.59,0,0,1,6.388,3,6.235,6.235,0,0,1,1.469,5.111,8.149,8.149,0,0,1-2.409,4.1V.633a6.577,6.577,0,0,0,3.216.914A3.363,3.363,0,0,0,3.5.429a4.615,4.615,0,0,0,.962-3.106V-12.862l3.942-2.113ZM19.884-.975A5.553,5.553,0,0,1,15.438-2.8a6.017,6.017,0,0,1-1.356-4.068V-19.232l3.973-2.081V-7.06a2.469,2.469,0,0,0,.5,1.75,2.308,2.308,0,0,0,1.7.52H23.1V-.975ZM41.768-4.79h2.649V-.975h-2.68a11.812,11.812,0,0,1-3.989-.552,7.275,7.275,0,0,1-2.791-1.939A16.634,16.634,0,0,1,25.875-.975H21.209V-4.79h4.7A11.867,11.867,0,0,0,34.736-8.1q-2.144-3.752-5.2-3.752-2.523,0-5.518,2.743v-3.5a7.953,7.953,0,0,1,5.991-2.9,7.783,7.783,0,0,1,4.793,1.8A15.876,15.876,0,0,1,38.93-8.605v1.577a15.1,15.1,0,0,1-1.324,1.482A8.5,8.5,0,0,0,41.768-4.79ZM33.033,1.895a2.024,2.024,0,0,1,1.5.552,2.024,2.024,0,0,1,.552,1.5,1.84,1.84,0,0,1-2.05,2.113,2.046,2.046,0,0,1-1.514-.568,2.088,2.088,0,0,1-.568-1.545,2,2,0,0,1,.568-1.482A2.046,2.046,0,0,1,33.033,1.895ZM42.524-.975V-4.79h2.838a2.308,2.308,0,0,0,1.7-.52,2.469,2.469,0,0,0,.5-1.75v-5.833l3.973-2.081v8.1a5.75,5.75,0,0,1-1.766,4.478A5.733,5.733,0,0,1,45.741-.975Zm1.7,7.032a2.046,2.046,0,0,1-1.514-.568,2.088,2.088,0,0,1-.568-1.545,1.826,1.826,0,0,1,2.081-2.05,2.024,2.024,0,0,1,1.5.552,2.024,2.024,0,0,1,.552,1.5A1.84,1.84,0,0,1,44.227,6.057Zm4.856,0a2.046,2.046,0,0,1-1.514-.568A2.088,2.088,0,0,1,47,3.944a1.826,1.826,0,0,1,2.081-2.05,2.024,2.024,0,0,1,1.5.552,2.024,2.024,0,0,1,.552,1.5A1.84,1.84,0,0,1,49.083,6.057ZM57.218-.975V-19.2l3.973-2.113V-.975ZM55.8,7.6l1.009-1.829h.946a2.652,2.652,0,0,1-.347-1.293,2.342,2.342,0,0,1,.741-1.734,2.456,2.456,0,0,1,1.782-.725,2.758,2.758,0,0,1,1.766.662V4.512a2.312,2.312,0,0,0-1.514-.662q-1.041,0-1.041.946a1.57,1.57,0,0,0,.41.977h3.122L61.664,7.6ZM71.912-.975,73.9-4.79h4.982q1.608,0,1.608-1.86a5.846,5.846,0,0,0-3.342-5.36L79.1-15.353q5.36,3.153,5.36,8.766T79.606-.975ZM104.453-4.79V-.975h-3.878a5.987,5.987,0,0,1-2.523,4.541,7.264,7.264,0,0,1-4.414,1.387,7.776,7.776,0,0,1-3.878-1.072V.444a6.788,6.788,0,0,0,3.405.977A3.965,3.965,0,0,0,95.514.7a2.386,2.386,0,0,0,1.119-1.734q-.252-.032-.788-.063l-.82-.095a7.073,7.073,0,0,1-5.014-2.554A7.011,7.011,0,0,1,88.53-8.259a7.7,7.7,0,0,1,1.892-5.487,5.8,5.8,0,0,1,4.415-1.766,5.524,5.524,0,0,1,4.383,1.8,5.9,5.9,0,0,1,1.356,4.036V-4.79Zm-7.82-4.951q0-2.081-1.8-2.081-2.4,0-2.4,3.437,0,3.059,2.775,3.405a10.882,10.882,0,0,0,1.419.158Zm13.527-8.009a2.046,2.046,0,0,1-1.514-.568,2.088,2.088,0,0,1-.568-1.545,1.826,1.826,0,0,1,2.081-2.05,2.024,2.024,0,0,1,1.5.552,2.024,2.024,0,0,1,.552,1.5A1.84,1.84,0,0,1,110.161-17.75Zm4.856,0a2.046,2.046,0,0,1-1.514-.568,2.088,2.088,0,0,1-.568-1.545,1.826,1.826,0,0,1,2.081-2.05,2.024,2.024,0,0,1,1.5.552,2.024,2.024,0,0,1,.552,1.5A1.84,1.84,0,0,1,115.017-17.75ZM117.6-4.79h4.982V-.975h-7.473a11.271,11.271,0,0,1-2.523-.221,11.8,11.8,0,0,1-2.523.221h-7.5V-4.79h4.982a7.32,7.32,0,0,1-1.2-3.91,6.993,6.993,0,0,1,1.86-5.077,5.81,5.81,0,0,1,4.383-1.734,5.672,5.672,0,0,1,4.793,2.239A7.235,7.235,0,0,1,118.8-8.7,7.32,7.32,0,0,1,117.6-4.79Zm-5.045-.347a4.162,4.162,0,0,0,1.75-1.561,4.051,4.051,0,0,0,.678-2.223,3.218,3.218,0,0,0-.646-2.128,2.163,2.163,0,0,0-1.75-.773q-2.4,0-2.4,2.869a4.225,4.225,0,0,0,.662,2.286A3.9,3.9,0,0,0,112.557-5.137Zm25.6.347V-.975H120.692V-4.79h4.667a8.355,8.355,0,0,1-.883-3.847,6.55,6.55,0,0,1,2.333-5.3,6.644,6.644,0,0,1,4.383-1.577,6.419,6.419,0,0,1,5.455,2.9v3.5a6.581,6.581,0,0,0-5.014-2.712,3.072,3.072,0,0,0-2.318.9,3.327,3.327,0,0,0-.867,2.412,3.509,3.509,0,0,0,1.088,2.728,4.253,4.253,0,0,0,2.98.993Z" transform="translate(2.409 21.912)" fill="url(#a)"/></svg>