<svg xmlns="http://www.w3.org/2000/svg" xmlns:xlink="http://www.w3.org/1999/xlink" width="135" height="121" viewBox="0 0 135 121"><defs><clipPath id="a"><rect width="135" height="121" fill="none"/></clipPath></defs><g clip-path="url(#a)"><g transform="translate(-738 -802)"><circle cx="6" cy="6" r="6" transform="translate(738 802)" fill="#fff"/></g><g transform="translate(-718 -802)"><circle cx="6" cy="6" r="6" transform="translate(738 802)" fill="#fff"/></g><g transform="translate(-698 -802)"><circle cx="6" cy="6" r="6" transform="translate(738 802)" fill="#fff"/></g><g transform="translate(-678 -802)"><circle cx="6" cy="6" r="6" transform="translate(738 802)" fill="#fff"/></g><g transform="translate(-658 -802)"><circle cx="6" cy="6" r="6" transform="translate(738 802)" fill="#fff"/></g><g transform="translate(-638 -802)"><circle cx="6" cy="6" r="6" transform="translate(738 802)" fill="#fff"/></g><g transform="translate(-618 -802)"><circle cx="6" cy="6" r="6" transform="translate(738 802)" fill="#fff"/></g><g transform="translate(-738 -776)"><circle cx="6" cy="6" r="6" transform="translate(738 802)" fill="#fff"/></g><g transform="translate(-718 -776)"><circle cx="6" cy="6" r="6" transform="translate(738 802)" fill="#fff"/></g><g transform="translate(-698 -776)"><circle cx="6" cy="6" r="6" transform="translate(738 802)" fill="#fff"/></g><g transform="translate(-678 -776)"><circle cx="6" cy="6" r="6" transform="translate(738 802)" fill="#fff"/></g><g transform="translate(-658 -776)"><circle cx="6" cy="6" r="6" transform="translate(738 802)" fill="#fff"/></g><g transform="translate(-638 -776)"><circle cx="6" cy="6" r="6" transform="translate(738 802)" fill="#fff"/></g><g transform="translate(-618 -776)"><circle cx="6" cy="6" r="6" transform="translate(738 802)" fill="#fff"/></g><g transform="translate(-738 -750)"><circle cx="6" cy="6" r="6" transform="translate(738 802)" fill="#fff"/></g><g transform="translate(-718 -750)"><circle cx="6" cy="6" r="6" transform="translate(738 802)" fill="#fff"/></g><g transform="translate(-698 -750)"><circle cx="6" cy="6" r="6" transform="translate(738 802)" fill="#fff"/></g><g transform="translate(-678 -750)"><circle cx="6" cy="6" r="6" transform="translate(738 802)" fill="#fff"/></g><g transform="translate(-658 -750)"><circle cx="6" cy="6" r="6" transform="translate(738 802)" fill="#fff"/></g><g transform="translate(-638 -750)"><circle cx="6" cy="6" r="6" transform="translate(738 802)" fill="#fff"/></g><g transform="translate(-618 -750)"><circle cx="6" cy="6" r="6" transform="translate(738 802)" fill="#fff"/></g><g transform="translate(-738 -724)"><circle cx="6" cy="6" r="6" transform="translate(738 802)" fill="#fff"/></g><g transform="translate(-718 -724)"><circle cx="6" cy="6" r="6" transform="translate(738 802)" fill="#fff"/></g><g transform="translate(-698 -724)"><circle cx="6" cy="6" r="6" transform="translate(738 802)" fill="#fff"/></g><g transform="translate(-678 -724)"><circle cx="6" cy="6" r="6" transform="translate(738 802)" fill="#fff"/></g><g transform="translate(-658 -724)"><circle cx="6" cy="6" r="6" transform="translate(738 802)" fill="#fff"/></g><g transform="translate(-638 -724)"><circle cx="6" cy="6" r="6" transform="translate(738 802)" fill="#fff"/></g><g transform="translate(-618 -724)"><circle cx="6" cy="6" r="6" transform="translate(738 802)" fill="#fff"/></g><g transform="translate(-738 -698)"><circle cx="6" cy="6" r="6" transform="translate(738 802)" fill="#fff"/></g><g transform="translate(-718 -698)"><circle cx="6" cy="6" r="6" transform="translate(738 802)" fill="#fff"/></g><g transform="translate(-698 -698)"><circle cx="6" cy="6" r="6" transform="translate(738 802)" fill="#fff"/></g><g transform="translate(-678 -698)"><circle cx="6" cy="6" r="6" transform="translate(738 802)" fill="#fff"/></g><g transform="translate(-658 -698)"><circle cx="6" cy="6" r="6" transform="translate(738 802)" fill="#fff"/></g><g transform="translate(-638 -698)"><circle cx="6" cy="6" r="6" transform="translate(738 802)" fill="#fff"/></g><g transform="translate(-618 -698)"><circle cx="6" cy="6" r="6" transform="translate(738 802)" fill="#fff"/></g></g></svg>