<svg xmlns="http://www.w3.org/2000/svg" xmlns:xlink="http://www.w3.org/1999/xlink" width="496" height="488" viewBox="0 0 496 488"><defs><linearGradient id="a" x1="0.5" y1="1" x2="0.5" gradientUnits="objectBoundingBox"><stop offset="0" stop-color="#5cb7f0"/><stop offset="0.5" stop-color="#5cb7f0"/><stop offset="1" stop-color="#d651c7"/></linearGradient></defs><g transform="translate(-8 -8)"><path d="M144,224h64a8,8,0,0,0,8-8V155.314l13.657-13.657a8,8,0,1,0-11.314-11.314L204.686,144H144a8,8,0,0,0-8,8v64A8,8,0,0,0,144,224Zm56-16H152V171.314l18.343,18.343a8,8,0,0,0,11.314,0L200,171.314Zm-24-35.313L163.314,160h25.372ZM232,200a8,8,0,0,1,8-8H376a8,8,0,0,1,0,16H240A8,8,0,0,1,232,200Zm152,48a8,8,0,0,1-8,8H136a8,8,0,0,1,0-16H376A8,8,0,0,1,384,248Zm0,32a8,8,0,0,1-8,8H136a8,8,0,0,1,0-16H376A8,8,0,0,1,384,280Zm0,32a8,8,0,0,1-8,8H136a8,8,0,0,1,0-16H376A8,8,0,0,1,384,312Zm0,48a8,8,0,0,1-8,8H344a8,8,0,0,1-3.579-.845l-10.841-5.421-3.923,3.923a8,8,0,0,1-11.314,0L304,355.313l-10.343,10.344a8,8,0,0,1-11.314-11.314l16-16a8,8,0,0,1,11.314,0L320,348.687l2.343-2.344a8,8,0,0,1,9.235-1.5L345.889,352H376a8,8,0,0,1,8,8ZM496,16H448a8,8,0,0,0-8,8v9.061l-47.637,6.806L257.833,8.213a8,8,0,0,0-4.705.32L66.628,80.264a30.73,30.73,0,0,0,18.789,58.417L88,138.007V343.988l-16-.011V336a8,8,0,0,0-8-8H16a8,8,0,0,0-8,8V480a8,8,0,0,0,8,8H64a8,8,0,0,0,8-8v-9.062l47.637-6.8,134.53,31.654a8,8,0,0,0,4.705-.32l186.5-71.731a30.73,30.73,0,0,0-18.788-58.417l-2.584.674V160.012l16,.011V168a8,8,0,0,0,8,8h48a8,8,0,0,0,8-8V24a8,8,0,0,0-8-8ZM56,472H24V344H56Zm374.623-91.2a14.73,14.73,0,0,1,9,28l-184.2,70.844-133.6-31.434a7.972,7.972,0,0,0-2.964-.133L72,454.776v-94.8l31.994.023c.135-.012.286,0,.429-.011l137.116-7.256a10.106,10.106,0,0,1,2.956,19.9L166.06,392.239a8,8,0,1,0,3.88,15.522l31.952-7.988,59.137,23.655a8,8,0,0,0,4.991.313Zm-166.1,26.8L228.4,393.146l19.972-4.994a26.106,26.106,0,0,0-7.659-51.4L104,343.989V133.833L247.473,96.4,283.6,110.854l-19.973,4.994a26.1,26.1,0,0,0,6.351,51.43c.434,0,.871-.01,1.308-.032L408,160.011V370.167Zm143.05-263.584-137.116,7.256a10.106,10.106,0,0,1-2.956-19.9l78.435-19.608a8,8,0,1,0-3.88-15.522l-31.953,7.988L250.971,80.572a7.991,7.991,0,0,0-4.991-.313L81.377,123.2a14.73,14.73,0,0,1-9.006-28l184.2-70.844,133.6,31.434a8.014,8.014,0,0,0,2.964.133L440,49.225v94.8s-32.279-.025-32.423-.014ZM488,160H456V32h32Z" fill="url(#a)"/></g></svg>