<svg xmlns="http://www.w3.org/2000/svg" xmlns:xlink="http://www.w3.org/1999/xlink" width="509.954" height="503.918" viewBox="0 0 509.954 503.918"><defs><linearGradient id="a" x1="0.106" y1="0.792" x2="0.923" y2="-0.035" gradientUnits="objectBoundingBox"><stop offset="0" stop-color="#5cb7f0"/><stop offset="0.344" stop-color="#5cb7f0"/><stop offset="0.637" stop-color="#d651c7"/><stop offset="0.86" stop-color="#d651c7"/><stop offset="0.989" stop-color="#d651c7"/><stop offset="1" stop-color="#d651c7"/></linearGradient></defs><g transform="translate(-430.023 -398.04)"><g transform="translate(429 394)"><path d="M226.722,169.133a5.309,5.309,0,0,1-5.312,5.312H108.021a5.312,5.312,0,0,1,0-10.624H221.41A5.309,5.309,0,0,1,226.722,169.133Zm-5.312,22.421H108.021a5.312,5.312,0,1,0,0,10.624H221.41a5.312,5.312,0,1,0,0-10.624Zm0,27.732H108.021a5.312,5.312,0,1,0,0,10.624H221.41a5.312,5.312,0,0,0,0-10.624Zm182.585-55.465H290.606a5.312,5.312,0,1,0,0,10.624H403.995a5.312,5.312,0,1,0,0-10.624Zm0,27.733H290.606a5.312,5.312,0,1,0,0,10.624H403.995a5.312,5.312,0,1,0,0-10.624Zm0,27.732H290.606a5.312,5.312,0,1,0,0,10.624H403.995a5.312,5.312,0,1,0,0-10.624ZM510.977,41.224V333.6a37.229,37.229,0,0,1-37.184,37.184H417.811a15.844,15.844,0,0,0-.836,11.874l-.021.005a26.53,26.53,0,0,1-25.248,34.824,16,16,0,0,0-10.855,4.23l19.254,57.771a12.719,12.719,0,0,1-18.25,15.137l-11.869-6.656-5.494,12.4c-4.618,10.61-19.959,9.952-23.7-1.089l-14.687-44.055-14.716,44.04c-3.647,11.066-19.028,11.719-23.665,1.074l-5.478-12.372-11.859,6.65A12.722,12.722,0,0,1,252.125,479.5l19.257-57.779a15.912,15.912,0,0,0-10.786-4.223h-.036a26.558,26.558,0,0,1-25.315-34.782,15.987,15.987,0,0,0-.816-11.931H38.207A37.229,37.229,0,0,1,1.023,333.6V41.224A37.229,37.229,0,0,1,38.207,4.04H473.793a37.229,37.229,0,0,1,37.184,37.184Zm-191,398.829a15.917,15.917,0,0,0-3.245,1.773,26.588,26.588,0,0,1-38.336-7.571l-16.2,48.594a2.09,2.09,0,0,0,3,2.5l16.937-9.5a5.307,5.307,0,0,1,7.454,2.48l7.859,17.741a2.057,2.057,0,0,0,3.86-.15Zm53.852-5.806a26.579,26.579,0,0,1-38.3,7.605,16.041,16.041,0,0,0-3.277-1.79L350.865,495.9a2.089,2.089,0,0,0,3.9.2l7.875-17.772a5.308,5.308,0,0,1,7.454-2.48l16.948,9.509a2.09,2.09,0,0,0,2.983-2.516Zm42.774-103.875a26.565,26.565,0,0,1-9.737-29.776,15.949,15.949,0,0,0-15.137-20.963,26.549,26.549,0,0,1-25.372-18.4,15.948,15.948,0,0,0-24.563-7.989,26.52,26.52,0,0,1-31.317.021,15.952,15.952,0,0,0-24.589,7.958,26.538,26.538,0,0,1-25.268,18.411,15.946,15.946,0,0,0-15.282,20.89,26.52,26.52,0,0,1-9.618,29.766,15.946,15.946,0,0,0-.093,25.886,26.547,26.547,0,0,1,9.737,29.766,15.944,15.944,0,0,0,15.153,20.932h.036a26.531,26.531,0,0,1,25.336,18.379c3.014,10.046,15.6,14.519,24.563,8.01a26.856,26.856,0,0,1,31.291-.026,15.947,15.947,0,0,0,24.589-7.958,26.525,26.525,0,0,1,25.3-18.416,15.948,15.948,0,0,0,15.251-20.89l-.016-.036a26.509,26.509,0,0,1,9.649-29.7,15.951,15.951,0,0,0,.087-25.861Zm.389-26.571a16.153,16.153,0,0,0-.66,3.237h30.9V67.784H64.767V307.038H235.9a16.024,16.024,0,0,0-.648-3.17,26.566,26.566,0,0,1,25.237-34.86,15.961,15.961,0,0,0,15.282-11.029,26.561,26.561,0,0,1,40.935-13.322,15.929,15.929,0,0,0,18.8.021,26.564,26.564,0,0,1,40.956,13.285,15.925,15.925,0,0,0,15.168,11.044A26.563,26.563,0,0,1,416.995,303.8ZM500.353,41.224a26.592,26.592,0,0,0-26.56-26.56H38.207a26.592,26.592,0,0,0-26.56,26.56V333.6a26.592,26.592,0,0,0,26.56,26.56H224.5a26.538,26.538,0,0,1,4.859-38.383,16.289,16.289,0,0,0,3.932-4.114H59.455a5.309,5.309,0,0,1-5.312-5.312V62.472a5.309,5.309,0,0,1,5.312-5.312h393.09a5.309,5.309,0,0,1,5.312,5.312V312.35a5.309,5.309,0,0,1-5.312,5.312H418.909a15.888,15.888,0,0,0,3.844,4.036,26.56,26.56,0,0,1,4.98,38.46h46.06a26.592,26.592,0,0,0,26.56-26.56ZM352.208,138.34h-192.4a23.295,23.295,0,1,1,0-46.589h192.4a23.295,23.295,0,0,1,0,46.589Zm-192.4-10.624h192.4a12.679,12.679,0,0,0,12.668-12.668v0a12.679,12.679,0,0,0-12.668-12.668h-192.4a12.671,12.671,0,1,0,0,25.341ZM358.62,346.292l-7.18,6.993a1.226,1.226,0,0,0-.353,1.084v.01l1.691,9.882a11.866,11.866,0,0,1-17.207,12.512l-8.876-4.658a1.212,1.212,0,0,0-1.146-.005l-8.886,4.664a11.866,11.866,0,0,1-17.207-12.512l1.691-9.882a1.236,1.236,0,0,0-.353-1.1L293.62,346.3a11.866,11.866,0,0,1,6.567-20.242l9.913-1.442a1.256,1.256,0,0,0,.934-.68l4.441-8.99a11.863,11.863,0,0,1,21.279.005l4.43,8.985a1.26,1.26,0,0,0,.939.68l9.919,1.442a11.866,11.866,0,0,1,6.578,20.237Zm-8.108-9.726-9.919-1.442a11.85,11.85,0,0,1-8.933-6.49l-4.43-8.985a1.238,1.238,0,0,0-2.231,0l-4.441,8.985a11.85,11.85,0,0,1-8.928,6.49l-9.913,1.442a1.24,1.24,0,0,0-.685,2.122l7.169,6.982a11.835,11.835,0,0,1,3.413,10.515l-1.691,9.872a1.232,1.232,0,0,0,1.8,1.307l8.876-4.658a11.832,11.832,0,0,1,11.044.005l8.865,4.653a1.232,1.232,0,0,0,1.8-1.307l-1.691-9.882a11.846,11.846,0,0,1,3.413-10.505l7.174-6.988a1.237,1.237,0,0,0-.692-2.116Zm40.109,6.676a64.507,64.507,0,1,1-64.507-64.507,64.577,64.577,0,0,1,64.507,64.507Zm-10.624,0a53.883,53.883,0,1,0-53.883,53.878A53.947,53.947,0,0,0,380,343.242Z" fill="url(#a)"/></g></g></svg>